<svg version="1.1" id="Layer_1" xmlns="http://www.w3.org/2000/svg" xmlns:xlink="http://www.w3.org/1999/xlink" x="0px" y="0px"
	 width="100%" viewBox="0 0 1000 1000" enable-background="new 0 0 1000 1000" xml:space="preserve">
<path fill="#F7F7F7" opacity="1.000000" stroke="none" 
	d="
M425.000000,1001.000000 
	C283.687317,1001.000000 142.374634,1001.000000 1.030971,1001.000000 
	C1.030971,667.736023 1.030971,334.472015 1.030971,1.104017 
	C334.215271,1.104017 667.430542,1.104017 1001.000000,1.104017 
	C1001.000000,142.027832 1001.000000,283.055969 1000.627747,424.462097 
	C999.989746,424.652496 999.538940,424.507477 999.484619,424.271301 
	C996.311401,410.465454 993.269470,396.628632 989.990845,382.848083 
	C988.004028,374.496765 986.102661,366.081146 983.372070,357.960358 
	C978.524902,343.544830 973.761108,329.033630 967.704590,315.109589 
	C960.245422,297.960785 951.642456,281.299774 943.230774,264.580414 
	C940.339600,258.833649 936.605408,253.501801 933.136963,248.056503 
	C925.773010,236.495544 919.203186,224.292526 910.727966,213.605621 
	C895.811829,194.796860 880.021240,176.649231 863.982483,158.775970 
	C855.365295,149.173096 846.010132,140.057068 836.029297,131.893433 
	C820.161011,118.914337 803.883850,106.348572 787.039795,94.675522 
	C772.669800,84.717033 757.567688,75.698311 742.234985,67.272888 
	C719.341553,54.692768 695.391785,44.300716 670.570068,36.045776 
	C662.228027,33.271473 653.814880,30.700962 645.385498,28.201797 
	C636.968079,25.706161 628.593872,22.905701 620.014160,21.152046 
	C605.927429,18.272785 591.746826,15.706499 577.500427,13.793674 
	C562.100342,11.725948 546.594604,9.471094 531.107605,9.255070 
	C508.037659,8.933273 484.930206,10.038984 461.866028,11.119187 
	C450.993134,11.628416 440.091492,12.970120 429.367920,14.867290 
	C414.895966,17.427597 400.480743,20.480728 386.229370,24.069628 
	C370.658630,27.990786 354.878632,31.666548 339.954407,37.429340 
	C318.640381,45.659481 297.783295,55.195816 277.189178,65.124527 
	C263.375397,71.784340 249.989487,79.521767 237.085358,87.823494 
	C224.741882,95.764549 213.081451,104.816963 201.466919,113.827065 
	C190.470078,122.357979 179.302612,130.826904 169.323898,140.474976 
	C154.629669,154.682297 140.673843,169.683792 126.890266,184.791138 
	C118.533218,193.950806 110.423058,203.485687 103.401237,213.678192 
	C93.072578,228.670776 83.033875,243.973709 74.302605,259.927582 
	C63.843769,279.038055 53.483982,298.428345 45.644852,318.689301 
	C36.052254,343.482239 28.264200,369.073792 21.345459,394.764282 
	C16.991899,410.929810 15.235279,427.855377 13.104778,444.541016 
	C11.178082,459.630463 9.642467,474.836487 9.184482,490.028748 
	C8.694093,506.295929 9.245024,522.629700 10.120385,538.892517 
	C10.929199,553.918945 11.947382,569.024048 14.365942,583.851013 
	C17.292543,601.792480 20.921480,619.721619 25.837812,637.208740 
	C31.247082,656.449280 37.684032,675.494202 45.115715,694.046570 
	C52.456139,712.371094 61.351093,730.095215 70.057060,747.840881 
	C74.272636,756.433594 79.173050,764.773682 84.547112,772.696533 
	C94.213043,786.946777 104.131203,801.055054 114.584984,814.732788 
	C123.133583,825.917847 131.964111,837.033020 141.836655,847.026306 
	C156.497543,861.866638 171.655457,876.321899 187.598312,889.758667 
	C202.233780,902.093628 217.812515,913.419006 233.678436,924.150085 
	C246.696625,932.955078 260.506531,940.687012 274.404999,948.066833 
	C289.634888,956.153687 304.897858,964.561340 320.998138,970.532593 
	C342.970581,978.681580 365.656097,984.981812 388.219238,991.433411 
	C399.645386,994.700500 411.479950,996.533325 423.106689,999.118835 
	C423.840912,999.282104 424.373566,1000.351868 425.000000,1001.000000 
z"/>
<path fill="#F7F7F7" opacity="1.000000" stroke="none" 
	d="
M1001.000000,590.000000 
	C1001.000000,726.928284 1001.000000,863.856567 1001.000000,1001.000000 
	C864.310120,1001.000000 727.620056,1001.000000 590.542358,1000.630493 
	C591.134155,999.777344 592.067017,999.044067 593.100708,998.851196 
	C599.273376,997.699951 605.563171,997.048340 611.638062,995.527344 
	C624.623108,992.276123 637.558350,988.792664 650.404968,985.032104 
	C661.204712,981.870667 672.049927,978.692200 682.512512,974.595520 
	C695.138245,969.651733 707.646240,964.252441 719.729797,958.114502 
	C739.302246,948.172424 758.812134,938.019348 777.721558,926.890259 
	C790.237732,919.523926 802.116089,910.865723 813.453186,901.756897 
	C827.521179,890.453857 841.109497,878.483948 854.230103,866.087830 
	C873.688232,847.704102 891.289612,827.566223 907.264771,806.068298 
	C914.472656,796.368469 921.688904,786.625549 928.112244,776.406189 
	C934.583984,766.109619 940.298462,755.313782 945.941284,744.525635 
	C952.535522,731.918518 959.079895,719.257202 964.922485,706.293396 
	C969.953308,695.130615 974.314819,683.630615 978.340332,672.059937 
	C982.912231,658.918701 987.334717,645.675415 990.800110,632.213440 
	C994.217102,618.939636 996.332397,605.331970 999.119568,591.891663 
	C999.270752,591.162476 1000.351746,590.626099 1001.000000,590.000000 
z"/>
<path fill="#FBFCFC" opacity="1.000000" stroke="none" 
	d="
M1001.000000,589.531311 
	C1000.351746,590.626099 999.270752,591.162476 999.119568,591.891663 
	C996.332397,605.331970 994.217102,618.939636 990.800110,632.213440 
	C987.334717,645.675415 982.912231,658.918701 978.340332,672.059937 
	C974.314819,683.630615 969.953308,695.130615 964.922485,706.293396 
	C959.079895,719.257202 952.535522,731.918518 945.941284,744.525635 
	C940.298462,755.313782 934.583984,766.109619 928.112244,776.406189 
	C921.688904,786.625549 914.472656,796.368469 907.264771,806.068298 
	C891.289612,827.566223 873.688232,847.704102 854.230103,866.087830 
	C841.109497,878.483948 827.521179,890.453857 813.453186,901.756897 
	C802.116089,910.865723 790.237732,919.523926 777.721558,926.890259 
	C758.812134,938.019348 739.302246,948.172424 719.729797,958.114502 
	C707.646240,964.252441 695.138245,969.651733 682.512512,974.595520 
	C672.049927,978.692200 661.204712,981.870667 650.404968,985.032104 
	C637.558350,988.792664 624.623108,992.276123 611.638062,995.527344 
	C605.563171,997.048340 599.273376,997.699951 593.100708,998.851196 
	C592.067017,999.044067 591.134155,999.777344 590.077393,1000.630493 
	C535.312439,1001.000000 480.624878,1001.000000 425.468658,1001.000000 
	C424.373566,1000.351868 423.840912,999.282104 423.106689,999.118835 
	C411.479950,996.533325 399.645386,994.700500 388.219238,991.433411 
	C365.656097,984.981812 342.970581,978.681580 320.998138,970.532593 
	C304.897858,964.561340 289.634888,956.153687 274.404999,948.066833 
	C260.506531,940.687012 246.696625,932.955078 233.678436,924.150085 
	C217.812515,913.419006 202.233780,902.093628 187.598312,889.758667 
	C171.655457,876.321899 156.497543,861.866638 141.836655,847.026306 
	C131.964111,837.033020 123.133583,825.917847 114.584984,814.732788 
	C104.131203,801.055054 94.213043,786.946777 84.547112,772.696533 
	C79.173050,764.773682 74.272636,756.433594 70.057060,747.840881 
	C61.351093,730.095215 52.456139,712.371094 45.115715,694.046570 
	C37.684032,675.494202 31.247082,656.449280 25.837812,637.208740 
	C20.921480,619.721619 17.292543,601.792480 14.365942,583.851013 
	C11.947382,569.024048 10.929199,553.918945 10.120385,538.892517 
	C9.245024,522.629700 8.694093,506.295929 9.184482,490.028748 
	C9.642467,474.836487 11.178082,459.630463 13.104778,444.541016 
	C15.235279,427.855377 16.991899,410.929810 21.345459,394.764282 
	C28.264200,369.073792 36.052254,343.482239 45.644852,318.689301 
	C53.483982,298.428345 63.843769,279.038055 74.302605,259.927582 
	C83.033875,243.973709 93.072578,228.670776 103.401237,213.678192 
	C110.423058,203.485687 118.533218,193.950806 126.890266,184.791138 
	C140.673843,169.683792 154.629669,154.682297 169.323898,140.474976 
	C179.302612,130.826904 190.470078,122.357979 201.466919,113.827065 
	C213.081451,104.816963 224.741882,95.764549 237.085358,87.823494 
	C249.989487,79.521767 263.375397,71.784340 277.189178,65.124527 
	C297.783295,55.195816 318.640381,45.659481 339.954407,37.429340 
	C354.878632,31.666548 370.658630,27.990786 386.229370,24.069628 
	C400.480743,20.480728 414.895966,17.427597 429.367920,14.867290 
	C440.091492,12.970120 450.993134,11.628416 461.866028,11.119187 
	C484.930206,10.038984 508.037659,8.933273 531.107605,9.255070 
	C546.594604,9.471094 562.100342,11.725948 577.500427,13.793674 
	C591.746826,15.706499 605.927429,18.272785 620.014160,21.152046 
	C628.593872,22.905701 636.968079,25.706161 645.385498,28.201797 
	C653.814880,30.700962 662.228027,33.271473 670.570068,36.045776 
	C695.391785,44.300716 719.341553,54.692768 742.234985,67.272888 
	C757.567688,75.698311 772.669800,84.717033 787.039795,94.675522 
	C803.883850,106.348572 820.161011,118.914337 836.029297,131.893433 
	C846.010132,140.057068 855.365295,149.173096 863.982483,158.775970 
	C880.021240,176.649231 895.811829,194.796860 910.727966,213.605621 
	C919.203186,224.292526 925.773010,236.495544 933.136963,248.056503 
	C936.605408,253.501801 940.339600,258.833649 943.230774,264.580414 
	C951.642456,281.299774 960.245422,297.960785 967.704590,315.109589 
	C973.761108,329.033630 978.524902,343.544830 983.372070,357.960358 
	C986.102661,366.081146 988.004028,374.496765 989.990845,382.848083 
	C993.269470,396.628632 996.311401,410.465454 999.484619,424.271301 
	C999.538940,424.507477 999.989746,424.652496 1000.627747,424.920044 
	C1001.000000,479.687561 1001.000000,534.375122 1001.000000,589.531311 
M510.499786,18.915007 
	C476.231903,18.589403 442.318024,21.928211 408.782013,28.947647 
	C318.815765,47.778553 239.774704,88.142387 173.094345,151.356934 
	C83.189560,236.588806 32.507889,341.393646 20.831934,464.802734 
	C15.299314,523.279785 20.762691,580.907471 36.484673,637.467224 
	C91.502083,835.392212 262.128906,976.753540 466.683258,994.218689 
	C524.206665,999.130127 580.832153,994.014160 636.398926,978.644104 
	C835.092285,923.684570 976.135254,753.895874 994.188293,548.314392 
	C999.372498,489.278992 993.699463,431.225708 977.461060,374.286255 
	C917.730225,164.842392 729.249146,21.176765 510.499786,18.915007 
z"/>
<path fill="#242941" opacity="1.000000" stroke="none" 
	d="
M510.999664,18.915920 
	C729.249146,21.176765 917.730225,164.842392 977.461060,374.286255 
	C993.699463,431.225708 999.372498,489.278992 994.188293,548.314392 
	C976.135254,753.895874 835.092285,923.684570 636.398926,978.644104 
	C580.832153,994.014160 524.206665,999.130127 466.683258,994.218689 
	C262.128906,976.753540 91.502083,835.392212 36.484673,637.467224 
	C20.762691,580.907471 15.299314,523.279785 20.831934,464.802734 
	C32.507889,341.393646 83.189560,236.588806 173.094345,151.356934 
	C239.774704,88.142387 318.815765,47.778553 408.782013,28.947647 
	C442.318024,21.928211 476.231903,18.589403 510.999664,18.915920 
M362.470093,363.849243 
	C353.715576,363.849243 344.961060,363.849243 335.613312,363.849243 
	C336.090363,373.840393 336.499908,382.965546 336.966644,392.087799 
	C338.246094,417.093964 341.961792,441.770660 347.952179,466.048035 
	C352.050903,482.658875 357.139343,499.023651 361.527435,515.566833 
	C362.254272,518.307068 362.261566,521.557129 361.545044,524.295166 
	C360.034943,530.065918 357.772705,535.636475 355.911499,541.319458 
	C348.831543,562.937561 340.265167,584.158936 337.625702,606.992493 
	C336.679962,615.173767 336.346191,623.425842 335.728668,631.704895 
	C348.668030,631.704895 360.705353,631.704895 372.334686,631.704895 
	C373.456146,621.790100 373.350861,612.061768 375.822418,603.039368 
	C381.346069,582.875000 388.085388,563.039978 394.580780,543.152954 
	C395.057739,541.692749 397.652985,539.836182 399.090729,539.973328 
	C404.296814,540.470093 410.017670,537.537842 414.668579,541.943115 
	C415.085480,542.337952 415.042847,543.198669 415.259735,543.827148 
	C417.210815,549.479858 419.219849,555.113037 421.121674,560.782166 
	C427.142181,578.728760 434.146454,596.417236 435.562286,615.580872 
	C435.963318,621.008972 436.445496,626.431091 436.889374,631.842407 
	C449.287598,631.842407 461.377167,631.842407 474.460876,631.842407 
	C473.134125,620.065796 473.026886,608.426453 470.316559,597.428589 
	C465.633911,578.427307 459.436462,559.793213 453.675476,541.066223 
	C450.317352,530.150024 444.015564,519.633362 450.092529,507.725189 
	C450.466095,506.993134 450.639587,506.155701 450.880280,505.359497 
	C464.276031,461.046204 473.337860,415.999695 473.850494,369.508270 
	C473.869812,367.755981 473.852936,366.003265 473.852936,364.152832 
	C461.178802,364.152832 449.096039,364.152832 436.847992,364.152832 
	C436.738861,365.937103 436.666443,367.425964 436.554077,368.911804 
	C435.261322,386.005249 435.354156,403.348328 432.338196,420.132568 
	C427.848389,445.119202 421.234894,469.728394 415.374664,494.462555 
	C412.983246,504.555908 414.108978,502.604523 404.669098,502.734680 
	C396.334503,502.849640 396.421875,502.733398 394.055054,494.752167 
	C381.656250,452.941498 372.796112,410.556458 373.016327,366.673920 
	C373.020233,365.891998 372.747009,365.108704 372.515381,363.849243 
	C369.379181,363.849243 366.417816,363.849243 362.470093,363.849243 
M317.832458,508.579254 
	C318.036530,498.106903 318.124237,487.630341 318.503845,477.164337 
	C318.648712,473.170135 317.074829,472.043488 313.264771,472.088837 
	C299.267731,472.255402 285.265076,472.289215 271.270752,472.033203 
	C268.694397,471.986084 265.717468,470.921631 263.662811,469.357880 
	C255.981873,463.512146 248.441864,457.450104 241.228271,451.042236 
	C239.299454,449.328888 237.755280,446.124908 237.682846,443.558746 
	C237.330353,431.070343 237.695328,418.563202 237.460175,406.069183 
	C237.378204,401.713043 238.702881,400.354431 243.132721,400.393555 
	C266.295959,400.598022 289.461975,400.488312 312.627014,400.487885 
	C314.384430,400.487823 316.141846,400.487854 318.162048,400.487854 
	C318.162048,387.975861 318.162048,376.201691 318.162048,364.135925 
	C279.016022,364.135925 240.119553,364.135925 200.889832,364.135925 
	C200.889832,365.201111 200.889847,365.997406 200.889832,366.793701 
	C200.888794,428.289398 200.854126,489.785126 200.946320,551.280701 
	C200.954254,556.577454 201.209625,562.005310 202.357391,567.147400 
	C209.416672,598.773682 228.626755,619.316467 259.512299,629.112427 
	C271.375854,632.875183 283.541077,632.081970 295.668182,632.158875 
	C303.277954,632.207153 310.888306,632.167908 318.494873,632.167908 
	C318.494873,619.664734 318.494873,607.791565 318.494873,595.540588 
	C306.846222,595.540588 295.546875,595.586182 284.247986,595.531616 
	C256.105591,595.395630 237.579590,576.881897 237.542023,548.890076 
	C237.521454,533.557861 237.519867,518.225586 237.543198,502.893372 
	C237.545822,501.170624 237.766891,499.448212 237.936432,497.009552 
	C240.947983,499.120880 243.034851,501.198730 245.550690,502.226410 
	C251.780746,504.771271 258.124512,508.453125 264.570312,508.781799 
	C282.015930,509.671478 299.538422,509.054535 317.832458,508.579254 
M106.500412,363.678955 
	C90.667908,363.678864 74.834961,363.741180 59.003269,363.627899 
	C55.692173,363.604218 54.255653,364.414978 54.352654,368.100128 
	C54.598141,377.426392 54.589729,386.768127 54.338223,396.094391 
	C54.236031,399.883820 55.523857,400.996979 59.200737,400.948456 
	C72.031197,400.779114 84.865288,400.885345 97.697998,400.886902 
	C104.394867,400.887726 104.409256,400.887787 104.409683,407.702484 
	C104.414299,480.865601 104.414024,554.028687 104.415085,627.191833 
	C104.415108,628.924194 104.415085,630.656555 104.415085,632.434937 
	C117.180016,632.434937 129.109787,632.434937 141.219406,632.434937 
	C141.358215,631.593079 141.552414,630.965881 141.552032,630.338806 
	C141.531082,595.841858 141.475159,561.344849 141.463135,526.847900 
	C141.449188,486.849915 141.520355,446.851776 141.409088,406.854095 
	C141.397293,402.615753 142.037521,400.576904 147.076019,400.754730 
	C158.727570,401.165985 170.403610,400.890472 182.069717,400.880371 
	C189.251831,400.874115 189.252350,400.863251 189.252258,393.932587 
	C189.252228,390.766083 189.248581,387.599548 189.248276,384.433044 
	C189.247604,377.662750 189.248062,370.892426 189.248062,363.679077 
	C161.463470,363.679077 134.481949,363.679077 106.500412,363.678955 
M691.492859,363.887451 
	C676.662842,363.885101 661.832825,363.880829 647.002808,363.881195 
	C639.981079,363.881378 639.975586,363.885376 639.975525,371.003632 
	C639.974976,437.155426 639.974487,503.307251 639.978516,569.459045 
	C639.979797,590.287598 640.074646,611.116638 639.932678,631.944153 
	C639.906067,635.844421 641.087708,637.210022 645.071899,637.133423 
	C656.231567,636.918518 667.398376,637.076599 678.562378,637.080200 
	C685.617737,637.082458 685.684753,637.055786 685.694702,629.814819 
	C685.717346,613.318665 685.758545,596.821899 685.626465,580.326721 
	C685.598816,576.875244 686.023376,575.057129 690.239929,574.589417 
	C704.938538,572.959290 718.793152,568.402344 731.734497,561.148621 
	C733.060913,560.405212 734.652161,560.134521 736.816223,559.412354 
	C736.816223,562.269043 736.816162,564.240234 736.816284,566.211487 
	C736.817627,588.030457 736.897827,609.850037 736.749390,631.667969 
	C736.721985,635.700195 737.853577,637.246338 742.095459,637.157410 
	C753.587646,636.916748 765.095154,636.857422 776.582825,637.193970 
	C781.612854,637.341309 783.077698,635.806091 783.062317,630.724792 
	C782.887939,573.071594 782.996643,515.417603 782.872864,457.764160 
	C782.859314,451.468536 782.278320,445.107910 781.262817,438.891388 
	C774.323364,396.410278 735.495422,363.154510 691.492859,363.887451 
M910.060364,622.559021 
	C948.226501,596.572327 954.611633,540.130737 923.101440,505.923187 
	C920.073364,502.635925 920.036560,500.509979 922.812378,497.129913 
	C935.318176,481.901276 941.371338,464.481842 941.053650,444.594543 
	C940.649353,419.280731 940.971558,393.955414 940.951782,368.635071 
	C940.950562,367.069824 940.698792,365.504730 940.556885,363.861267 
	C896.122192,363.861267 852.324646,363.890839 808.527344,363.805420 
	C805.005615,363.798584 803.944763,365.059143 803.947449,368.482788 
	C804.016541,456.271576 804.027405,544.060364 803.940674,631.849121 
	C803.936523,636.070740 805.432617,637.199890 809.499146,637.154968 
	C826.821472,636.963501 844.148743,636.936829 861.471252,637.120483 
	C878.962952,637.305847 895.046753,633.029785 910.060364,622.559021 
M537.126221,434.500000 
	C537.126221,469.314911 537.026794,504.130371 537.204102,538.944336 
	C537.242920,546.562988 537.770630,554.252747 538.921753,561.779968 
	C545.504639,604.825623 583.467651,636.768127 627.829041,637.126648 
	C631.523682,637.156433 632.810425,635.880737 632.763672,632.196228 
	C632.611450,620.204651 632.577454,608.207153 632.802551,596.217651 
	C632.878357,592.177979 631.323364,591.226746 627.554443,591.058838 
	C601.150757,589.882446 583.004333,570.824097 582.993896,544.448242 
	C582.970642,485.979279 582.929688,427.510193 583.071045,369.041595 
	C583.082275,364.396912 581.730042,363.024445 577.124878,363.156586 
	C566.139771,363.471832 555.139526,363.268311 544.145386,363.260468 
	C537.146790,363.255493 537.130554,363.244446 537.128052,370.033691 
	C537.120300,391.189117 537.125977,412.344574 537.126221,434.500000 
M531.795715,616.392822 
	C531.795349,609.566223 531.930725,602.736145 531.756409,595.914001 
	C531.582031,589.089722 527.602417,584.775696 520.984253,584.596863 
	C511.833984,584.349548 502.665192,584.337463 493.516998,584.626343 
	C487.359619,584.820862 483.278412,589.095154 483.135834,595.251648 
	C482.927704,604.237976 482.932617,613.235352 483.118256,622.222473 
	C483.249664,628.585144 487.597809,632.898376 493.859009,633.000671 
	C502.847687,633.147644 511.841980,633.135132 520.831177,633.004883 
	C526.904968,632.916931 531.139404,628.867676 531.736206,622.843262 
	C531.916016,621.028809 531.784302,619.183472 531.795715,616.392822 
z"/>
<path fill="#FDFDFD" opacity="1.000000" stroke="none" 
	d="
M362.963287,363.849243 
	C366.417816,363.849243 369.379181,363.849243 372.515381,363.849243 
	C372.747009,365.108704 373.020233,365.891998 373.016327,366.673920 
	C372.796112,410.556458 381.656250,452.941498 394.055054,494.752167 
	C396.421875,502.733398 396.334503,502.849640 404.669098,502.734680 
	C414.108978,502.604523 412.983246,504.555908 415.374664,494.462555 
	C421.234894,469.728394 427.848389,445.119202 432.338196,420.132568 
	C435.354156,403.348328 435.261322,386.005249 436.554077,368.911804 
	C436.666443,367.425964 436.738861,365.937103 436.847992,364.152832 
	C449.096039,364.152832 461.178802,364.152832 473.852936,364.152832 
	C473.852936,366.003265 473.869812,367.755981 473.850494,369.508270 
	C473.337860,415.999695 464.276031,461.046204 450.880280,505.359497 
	C450.639587,506.155701 450.466095,506.993134 450.092529,507.725189 
	C444.015564,519.633362 450.317352,530.150024 453.675476,541.066223 
	C459.436462,559.793213 465.633911,578.427307 470.316559,597.428589 
	C473.026886,608.426453 473.134125,620.065796 474.460876,631.842407 
	C461.377167,631.842407 449.287598,631.842407 436.889374,631.842407 
	C436.445496,626.431091 435.963318,621.008972 435.562286,615.580872 
	C434.146454,596.417236 427.142181,578.728760 421.121674,560.782166 
	C419.219849,555.113037 417.210815,549.479858 415.259735,543.827148 
	C415.042847,543.198669 415.085480,542.337952 414.668579,541.943115 
	C410.017670,537.537842 404.296814,540.470093 399.090729,539.973328 
	C397.652985,539.836182 395.057739,541.692749 394.580780,543.152954 
	C388.085388,563.039978 381.346069,582.875000 375.822418,603.039368 
	C373.350861,612.061768 373.456146,621.790100 372.334686,631.704895 
	C360.705353,631.704895 348.668030,631.704895 335.728668,631.704895 
	C336.346191,623.425842 336.679962,615.173767 337.625702,606.992493 
	C340.265167,584.158936 348.831543,562.937561 355.911499,541.319458 
	C357.772705,535.636475 360.034943,530.065918 361.545044,524.295166 
	C362.261566,521.557129 362.254272,518.307068 361.527435,515.566833 
	C357.139343,499.023651 352.050903,482.658875 347.952179,466.048035 
	C341.961792,441.770660 338.246094,417.093964 336.966644,392.087799 
	C336.499908,382.965546 336.090363,373.840393 335.613312,363.849243 
	C344.961060,363.849243 353.715576,363.849243 362.963287,363.849243 
z"/>
<path fill="#FDFDFD" opacity="1.000000" stroke="none" 
	d="
M317.431458,508.807190 
	C299.538422,509.054535 282.015930,509.671478 264.570312,508.781799 
	C258.124512,508.453125 251.780746,504.771271 245.550690,502.226410 
	C243.034851,501.198730 240.947983,499.120880 237.936432,497.009552 
	C237.766891,499.448212 237.545822,501.170624 237.543198,502.893372 
	C237.519867,518.225586 237.521454,533.557861 237.542023,548.890076 
	C237.579590,576.881897 256.105591,595.395630 284.247986,595.531616 
	C295.546875,595.586182 306.846222,595.540588 318.494873,595.540588 
	C318.494873,607.791565 318.494873,619.664734 318.494873,632.167908 
	C310.888306,632.167908 303.277954,632.207153 295.668182,632.158875 
	C283.541077,632.081970 271.375854,632.875183 259.512299,629.112427 
	C228.626755,619.316467 209.416672,598.773682 202.357391,567.147400 
	C201.209625,562.005310 200.954254,556.577454 200.946320,551.280701 
	C200.854126,489.785126 200.888794,428.289398 200.889832,366.793701 
	C200.889847,365.997406 200.889832,365.201111 200.889832,364.135925 
	C240.119553,364.135925 279.016022,364.135925 318.162048,364.135925 
	C318.162048,376.201691 318.162048,387.975861 318.162048,400.487854 
	C316.141846,400.487854 314.384430,400.487823 312.627014,400.487885 
	C289.461975,400.488312 266.295959,400.598022 243.132721,400.393555 
	C238.702881,400.354431 237.378204,401.713043 237.460175,406.069183 
	C237.695328,418.563202 237.330353,431.070343 237.682846,443.558746 
	C237.755280,446.124908 239.299454,449.328888 241.228271,451.042236 
	C248.441864,457.450104 255.981873,463.512146 263.662811,469.357880 
	C265.717468,470.921631 268.694397,471.986084 271.270752,472.033203 
	C285.265076,472.289215 299.267731,472.255402 313.264771,472.088837 
	C317.074829,472.043488 318.648712,473.170135 318.503845,477.164337 
	C318.124237,487.630341 318.036530,498.106903 317.431458,508.807190 
z"/>
<path fill="#FCFCFC" opacity="1.000000" stroke="none" 
	d="
M107.000427,363.679016 
	C134.481949,363.679077 161.463470,363.679077 189.248062,363.679077 
	C189.248062,370.892426 189.247604,377.662750 189.248276,384.433044 
	C189.248581,387.599548 189.252228,390.766083 189.252258,393.932587 
	C189.252350,400.863251 189.251831,400.874115 182.069717,400.880371 
	C170.403610,400.890472 158.727570,401.165985 147.076019,400.754730 
	C142.037521,400.576904 141.397293,402.615753 141.409088,406.854095 
	C141.520355,446.851776 141.449188,486.849915 141.463135,526.847900 
	C141.475159,561.344849 141.531082,595.841858 141.552032,630.338806 
	C141.552414,630.965881 141.358215,631.593079 141.219406,632.434937 
	C129.109787,632.434937 117.180016,632.434937 104.415085,632.434937 
	C104.415085,630.656555 104.415108,628.924194 104.415085,627.191833 
	C104.414024,554.028687 104.414299,480.865601 104.409683,407.702484 
	C104.409256,400.887787 104.394867,400.887726 97.697998,400.886902 
	C84.865288,400.885345 72.031197,400.779114 59.200737,400.948456 
	C55.523857,400.996979 54.236031,399.883820 54.338223,396.094391 
	C54.589729,386.768127 54.598141,377.426392 54.352654,368.100128 
	C54.255653,364.414978 55.692173,363.604218 59.003269,363.627899 
	C74.834961,363.741180 90.667908,363.678864 107.000427,363.679016 
z"/>
<path fill="#ED471A" opacity="1.000000" stroke="none" 
	d="
M691.990601,363.893433 
	C735.495422,363.154510 774.323364,396.410278 781.262817,438.891388 
	C782.278320,445.107910 782.859314,451.468536 782.872864,457.764160 
	C782.996643,515.417603 782.887939,573.071594 783.062317,630.724792 
	C783.077698,635.806091 781.612854,637.341309 776.582825,637.193970 
	C765.095154,636.857422 753.587646,636.916748 742.095459,637.157410 
	C737.853577,637.246338 736.721985,635.700195 736.749390,631.667969 
	C736.897827,609.850037 736.817627,588.030457 736.816284,566.211487 
	C736.816162,564.240234 736.816223,562.269043 736.816223,559.412354 
	C734.652161,560.134521 733.060913,560.405212 731.734497,561.148621 
	C718.793152,568.402344 704.938538,572.959290 690.239929,574.589417 
	C686.023376,575.057129 685.598816,576.875244 685.626465,580.326721 
	C685.758545,596.821899 685.717346,613.318665 685.694702,629.814819 
	C685.684753,637.055786 685.617737,637.082458 678.562378,637.080200 
	C667.398376,637.076599 656.231567,636.918518 645.071899,637.133423 
	C641.087708,637.210022 639.906067,635.844421 639.932678,631.944153 
	C640.074646,611.116638 639.979797,590.287598 639.978516,569.459045 
	C639.974487,503.307251 639.974976,437.155426 639.975525,371.003632 
	C639.975586,363.885376 639.981079,363.881378 647.002808,363.881195 
	C661.832825,363.880829 676.662842,363.885101 691.990601,363.893433 
M648.905090,483.500000 
	C648.905090,493.162140 648.904968,502.824310 648.905151,512.486450 
	C648.905884,548.969299 648.965942,585.452454 648.830750,621.934753 
	C648.814270,626.373047 649.918579,628.321045 654.716614,627.960999 
	C660.017578,627.563110 665.387817,627.610168 670.697449,627.945435 
	C675.658020,628.258484 676.975220,626.194092 676.907837,621.505615 
	C676.675598,605.349731 676.799194,589.188782 676.789307,573.029724 
	C676.784729,565.642273 676.841919,565.417175 684.199097,565.160828 
	C702.150452,564.535400 718.357544,558.659912 733.407837,549.181763 
	C737.403687,546.665283 741.342834,544.058716 746.103149,540.979187 
	C746.103149,543.697998 746.102417,545.333801 746.103271,546.969666 
	C746.116333,572.124268 746.200256,597.279297 746.070374,622.433167 
	C746.049744,626.431030 747.012390,628.227356 751.362732,627.952087 
	C756.672241,627.616211 762.041199,627.573181 767.343445,627.961792 
	C772.109619,628.311096 773.212830,626.449646 773.201965,621.958374 
	C773.068176,566.651306 773.144165,511.343811 773.056274,456.036621 
	C773.048096,450.905731 772.739563,445.693268 771.810486,440.658966 
	C765.034851,403.944580 738.300598,378.146271 701.349731,374.074005 
	C686.033142,372.385986 670.425842,373.452087 654.964172,372.895020 
	C650.074585,372.718842 648.806580,374.268188 648.831604,379.049194 
	C649.011963,413.531982 648.914368,448.016235 648.905090,483.500000 
z"/>
<path fill="#EB471B" opacity="1.000000" stroke="none" 
	d="
M909.768433,622.768677 
	C895.046753,633.029785 878.962952,637.305847 861.471252,637.120483 
	C844.148743,636.936829 826.821472,636.963501 809.499146,637.154968 
	C805.432617,637.199890 803.936523,636.070740 803.940674,631.849121 
	C804.027405,544.060364 804.016541,456.271576 803.947449,368.482788 
	C803.944763,365.059143 805.005615,363.798584 808.527344,363.805420 
	C852.324646,363.890839 896.122192,363.861267 940.556885,363.861267 
	C940.698792,365.504730 940.950562,367.069824 940.951782,368.635071 
	C940.971558,393.955414 940.649353,419.280731 941.053650,444.594543 
	C941.371338,464.481842 935.318176,481.901276 922.812378,497.129913 
	C920.036560,500.509979 920.073364,502.635925 923.101440,505.923187 
	C954.611633,540.130737 948.226501,596.572327 909.768433,622.768677 
M931.844543,444.338501 
	C931.847229,422.515076 931.744202,400.690704 931.940552,378.869019 
	C931.980469,374.429138 930.899719,372.754730 926.133667,372.778473 
	C890.317261,372.956940 854.499207,372.955688 818.682739,372.781036 
	C814.061096,372.758514 812.836914,374.137543 812.844116,378.696686 
	C812.971313,459.493622 812.968689,540.290894 812.834839,621.087769 
	C812.827087,625.763184 813.920776,627.429016 818.870667,627.316895 
	C833.023621,626.996216 847.194031,627.447327 861.346863,627.124817 
	C869.077393,626.948730 877.046509,626.837463 884.458435,624.940491 
	C911.816284,617.938416 933.508301,589.872986 933.817139,561.553528 
	C934.054199,539.818237 926.712524,521.047485 910.147766,506.501617 
	C906.397827,503.208649 906.027649,501.263153 909.889832,497.606445 
	C924.823059,483.467621 931.749084,465.764435 931.844543,444.338501 
z"/>
<path fill="#EB471A" opacity="1.000000" stroke="none" 
	d="
M537.126343,434.000000 
	C537.125977,412.344574 537.120300,391.189117 537.128052,370.033691 
	C537.130554,363.244446 537.146790,363.255493 544.145386,363.260468 
	C555.139526,363.268311 566.139771,363.471832 577.124878,363.156586 
	C581.730042,363.024445 583.082275,364.396912 583.071045,369.041595 
	C582.929688,427.510193 582.970642,485.979279 582.993896,544.448242 
	C583.004333,570.824097 601.150757,589.882446 627.554443,591.058838 
	C631.323364,591.226746 632.878357,592.177979 632.802551,596.217651 
	C632.577454,608.207153 632.611450,620.204651 632.763672,632.196228 
	C632.810425,635.880737 631.523682,637.156433 627.829041,637.126648 
	C583.467651,636.768127 545.504639,604.825623 538.921753,561.779968 
	C537.770630,554.252747 537.242920,546.562988 537.204102,538.944336 
	C537.026794,504.130371 537.126221,469.314911 537.126343,434.000000 
M567.051270,600.430786 
	C582.053650,616.494446 600.216248,625.830078 622.585571,627.232788 
	C622.585571,617.763794 622.585571,609.072693 622.585571,600.567688 
	C607.400635,598.177490 594.820190,592.106812 585.571472,580.101318 
	C578.130554,570.442505 574.042969,559.585449 574.045471,547.285156 
	C574.056885,491.140686 573.989624,434.996063 574.153687,378.852081 
	C574.168091,373.922943 572.611511,372.426575 567.886108,372.749237 
	C562.745544,373.100281 557.538879,373.132172 552.404480,372.737640 
	C547.437012,372.355927 546.082031,374.400177 546.126099,379.048706 
	C546.296692,397.039917 546.120728,415.034058 546.203979,433.026520 
	C546.388916,472.997375 546.333313,512.973389 547.028381,552.935974 
	C547.340271,570.867554 554.854553,586.409851 567.051270,600.430786 
z"/>
<path fill="#FDFDFD" opacity="1.000000" stroke="none" 
	d="
M531.795532,616.872559 
	C531.784302,619.183472 531.916016,621.028809 531.736206,622.843262 
	C531.139404,628.867676 526.904968,632.916931 520.831177,633.004883 
	C511.841980,633.135132 502.847687,633.147644 493.859009,633.000671 
	C487.597809,632.898376 483.249664,628.585144 483.118256,622.222473 
	C482.932617,613.235352 482.927704,604.237976 483.135834,595.251648 
	C483.278412,589.095154 487.359619,584.820862 493.516998,584.626343 
	C502.665192,584.337463 511.833984,584.349548 520.984253,584.596863 
	C527.602417,584.775696 531.582031,589.089722 531.756409,595.914001 
	C531.930725,602.736145 531.795349,609.566223 531.795532,616.872559 
z"/>
<path fill="#28283E" opacity="1.000000" stroke="none" 
	d="
M648.904968,483.000000 
	C648.914368,448.016235 649.011963,413.531982 648.831604,379.049194 
	C648.806580,374.268188 650.074585,372.718842 654.964172,372.895020 
	C670.425842,373.452087 686.033142,372.385986 701.349731,374.074005 
	C738.300598,378.146271 765.034851,403.944580 771.810486,440.658966 
	C772.739563,445.693268 773.048096,450.905731 773.056274,456.036621 
	C773.144165,511.343811 773.068176,566.651306 773.201965,621.958374 
	C773.212830,626.449646 772.109619,628.311096 767.343445,627.961792 
	C762.041199,627.573181 756.672241,627.616211 751.362732,627.952087 
	C747.012390,628.227356 746.049744,626.431030 746.070374,622.433167 
	C746.200256,597.279297 746.116333,572.124268 746.103271,546.969666 
	C746.102417,545.333801 746.103149,543.697998 746.103149,540.979187 
	C741.342834,544.058716 737.403687,546.665283 733.407837,549.181763 
	C718.357544,558.659912 702.150452,564.535400 684.199097,565.160828 
	C676.841919,565.417175 676.784729,565.642273 676.789307,573.029724 
	C676.799194,589.188782 676.675598,605.349731 676.907837,621.505615 
	C676.975220,626.194092 675.658020,628.258484 670.697449,627.945435 
	C665.387817,627.610168 660.017578,627.563110 654.716614,627.960999 
	C649.918579,628.321045 648.814270,626.373047 648.830750,621.934753 
	C648.965942,585.452454 648.905884,548.969299 648.905151,512.486450 
	C648.904968,502.824310 648.905090,493.162140 648.904968,483.000000 
M707.923950,402.552734 
	C699.691528,401.658997 691.449890,400.840912 683.230042,399.843353 
	C678.267334,399.241058 676.660706,401.011169 676.691956,406.174530 
	C676.911682,442.504303 676.812073,478.835968 676.817017,515.167053 
	C676.817932,521.833313 676.897217,528.500427 676.805786,535.165344 
	C676.769043,537.846436 677.582275,539.569092 680.502075,538.872620 
	C689.530945,536.719116 699.442627,536.087524 707.318787,531.774048 
	C720.198242,524.720520 731.778015,515.278687 743.794739,506.688690 
	C744.965088,505.852051 746.028564,503.918213 746.010010,502.508636 
	C745.748962,482.709564 747.003723,462.685272 744.408447,443.178955 
	C741.717346,422.952759 728.473755,409.308014 707.923950,402.552734 
z"/>
<path fill="#28283E" opacity="1.000000" stroke="none" 
	d="
M931.844177,444.816467 
	C931.749084,465.764435 924.823059,483.467621 909.889832,497.606445 
	C906.027649,501.263153 906.397827,503.208649 910.147766,506.501617 
	C926.712524,521.047485 934.054199,539.818237 933.817139,561.553528 
	C933.508301,589.872986 911.816284,617.938416 884.458435,624.940491 
	C877.046509,626.837463 869.077393,626.948730 861.346863,627.124817 
	C847.194031,627.447327 833.023621,626.996216 818.870667,627.316895 
	C813.920776,627.429016 812.827087,625.763184 812.834839,621.087769 
	C812.968689,540.290894 812.971313,459.493622 812.844116,378.696686 
	C812.836914,374.137543 814.061096,372.758514 818.682739,372.781036 
	C854.499207,372.955688 890.317261,372.956940 926.133667,372.778473 
	C930.899719,372.754730 931.980469,374.429138 931.940552,378.869019 
	C931.744202,400.690704 931.847229,422.515076 931.844177,444.816467 
M896.414734,531.114014 
	C890.121521,523.782898 882.145630,519.184326 872.817322,517.016113 
	C869.802368,516.315369 868.694275,514.918152 868.774719,511.880280 
	C868.942383,505.553284 868.973511,499.215485 868.799927,492.889313 
	C868.699219,489.219788 870.077148,487.660370 873.769165,486.891327 
	C889.238098,483.669098 902.801758,469.175262 903.825256,453.457916 
	C904.851562,437.697784 904.342712,421.843018 904.850281,406.040741 
	C905.008667,401.110809 903.222290,399.726624 898.541809,399.781586 
	C881.549561,399.981232 864.553528,399.869690 847.558960,399.875397 
	C840.844910,399.877625 840.841003,399.877472 840.840942,406.830963 
	C840.840393,458.981049 840.840454,511.131165 840.843262,563.281250 
	C840.843811,573.944519 841.030762,584.611877 840.776123,595.268921 
	C840.678223,599.366333 842.151184,600.403992 845.989075,600.249695 
	C852.809387,599.975525 859.649170,600.230835 866.479248,600.142944 
	C876.957764,600.008057 886.005493,596.112976 893.463379,588.906006 
	C910.176208,572.755371 911.367981,551.396606 896.414734,531.114014 
z"/>
<path fill="#29283D" opacity="1.000000" stroke="none" 
	d="
M566.808960,600.169189 
	C554.854553,586.409851 547.340271,570.867554 547.028381,552.935974 
	C546.333313,512.973389 546.388916,472.997375 546.203979,433.026520 
	C546.120728,415.034058 546.296692,397.039917 546.126099,379.048706 
	C546.082031,374.400177 547.437012,372.355927 552.404480,372.737640 
	C557.538879,373.132172 562.745544,373.100281 567.886108,372.749237 
	C572.611511,372.426575 574.168091,373.922943 574.153687,378.852081 
	C573.989624,434.996063 574.056885,491.140686 574.045471,547.285156 
	C574.042969,559.585449 578.130554,570.442505 585.571472,580.101318 
	C594.820190,592.106812 607.400635,598.177490 622.585571,600.567688 
	C622.585571,609.072693 622.585571,617.763794 622.585571,627.232788 
	C600.216248,625.830078 582.053650,616.494446 566.808960,600.169189 
z"/>
<path fill="#F14719" opacity="1.000000" stroke="none" 
	d="
M708.312012,402.667786 
	C728.473755,409.308014 741.717346,422.952759 744.408447,443.178955 
	C747.003723,462.685272 745.748962,482.709564 746.010010,502.508636 
	C746.028564,503.918213 744.965088,505.852051 743.794739,506.688690 
	C731.778015,515.278687 720.198242,524.720520 707.318787,531.774048 
	C699.442627,536.087524 689.530945,536.719116 680.502075,538.872620 
	C677.582275,539.569092 676.769043,537.846436 676.805786,535.165344 
	C676.897217,528.500427 676.817932,521.833313 676.817017,515.167053 
	C676.812073,478.835968 676.911682,442.504303 676.691956,406.174530 
	C676.660706,401.011169 678.267334,399.241058 683.230042,399.843353 
	C691.449890,400.840912 699.691528,401.658997 708.312012,402.667786 
M685.259277,499.500000 
	C685.259277,509.190521 685.259277,518.881042 685.259277,529.288574 
	C690.827393,527.891357 694.906982,527.084045 698.848694,525.839905 
	C713.432251,521.236816 724.397339,511.148438 735.355774,501.169098 
	C736.535034,500.095154 736.750549,497.548218 736.767212,495.678833 
	C736.882812,482.685333 736.869446,469.690125 736.818359,456.695770 
	C736.710266,429.170990 719.589600,411.066467 692.042297,409.282135 
	C685.448120,408.855042 685.264648,409.001434 685.262451,415.534821 
	C685.252869,443.189880 685.259277,470.844940 685.259277,499.500000 
z"/>
<path fill="#EF4719" opacity="1.000000" stroke="none" 
	d="
M896.652954,531.378052 
	C911.367981,551.396606 910.176208,572.755371 893.463379,588.906006 
	C886.005493,596.112976 876.957764,600.008057 866.479248,600.142944 
	C859.649170,600.230835 852.809387,599.975525 845.989075,600.249695 
	C842.151184,600.403992 840.678223,599.366333 840.776123,595.268921 
	C841.030762,584.611877 840.843811,573.944519 840.843262,563.281250 
	C840.840454,511.131165 840.840393,458.981049 840.840942,406.830963 
	C840.841003,399.877472 840.844910,399.877625 847.558960,399.875397 
	C864.553528,399.869690 881.549561,399.981232 898.541809,399.781586 
	C903.222290,399.726624 905.008667,401.110809 904.850281,406.040741 
	C904.342712,421.843018 904.851562,437.697784 903.825256,453.457916 
	C902.801758,469.175262 889.238098,483.669098 873.769165,486.891327 
	C870.077148,487.660370 868.699219,489.219788 868.799927,492.889313 
	C868.973511,499.215485 868.942383,505.553284 868.774719,511.880280 
	C868.694275,514.918152 869.802368,516.315369 872.817322,517.016113 
	C882.145630,519.184326 890.121521,523.782898 896.652954,531.378052 
M896.550781,566.602722 
	C899.827820,543.121094 886.722839,526.679932 863.359192,525.223938 
	C859.934326,525.010498 859.213806,523.534973 859.237671,520.535217 
	C859.331604,508.705170 859.419006,496.871155 859.197021,485.044495 
	C859.113281,480.584167 860.497375,479.010986 865.150269,478.870331 
	C881.753723,478.368286 894.822266,464.746613 895.016357,448.095551 
	C895.148376,436.766022 894.929565,425.431610 895.133972,414.104218 
	C895.202576,410.306549 894.253479,408.836731 890.131226,408.948608 
	C879.308105,409.242310 868.471741,409.049591 857.640686,409.056702 
	C849.686523,409.061920 849.704529,409.066162 849.704956,416.804626 
	C849.707764,470.959900 849.701660,525.115173 849.700684,579.270447 
	C849.700439,591.292358 849.704529,591.292419 862.059265,591.237854 
	C879.162292,591.162292 890.272156,583.416199 896.550781,566.602722 
z"/>
<path fill="#29293F" opacity="1.000000" stroke="none" 
	d="
M685.259521,499.000000 
	C685.259277,470.844940 685.252869,443.189880 685.262451,415.534821 
	C685.264648,409.001434 685.448120,408.855042 692.042297,409.282135 
	C719.589600,411.066467 736.710266,429.170990 736.818359,456.695770 
	C736.869446,469.690125 736.882812,482.685333 736.767212,495.678833 
	C736.750549,497.548218 736.535034,500.095154 735.355774,501.169098 
	C724.397339,511.148438 713.432251,521.236816 698.848694,525.839905 
	C694.906982,527.084045 690.827393,527.891357 685.259277,529.288574 
	C685.259277,518.881042 685.259277,509.190521 685.259521,499.000000 
z"/>
<path fill="#2A293E" opacity="1.000000" stroke="none" 
	d="
M896.407471,566.996094 
	C890.272156,583.416199 879.162292,591.162292 862.059265,591.237854 
	C849.704529,591.292419 849.700439,591.292358 849.700684,579.270447 
	C849.701660,525.115173 849.707764,470.959900 849.704956,416.804626 
	C849.704529,409.066162 849.686523,409.061920 857.640686,409.056702 
	C868.471741,409.049591 879.308105,409.242310 890.131226,408.948608 
	C894.253479,408.836731 895.202576,410.306549 895.133972,414.104218 
	C894.929565,425.431610 895.148376,436.766022 895.016357,448.095551 
	C894.822266,464.746613 881.753723,478.368286 865.150269,478.870331 
	C860.497375,479.010986 859.113281,480.584167 859.197021,485.044495 
	C859.419006,496.871155 859.331604,508.705170 859.237671,520.535217 
	C859.213806,523.534973 859.934326,525.010498 863.359192,525.223938 
	C886.722839,526.679932 899.827820,543.121094 896.407471,566.996094 
z"/>
</svg>