<svg version="1.1" id="Layer_1" xmlns="http://www.w3.org/2000/svg" xmlns:xlink="http://www.w3.org/1999/xlink" x="0px" y="0px"
	 width="100%" viewBox="0 0 976 1024" enable-background="new 0 0 976 1024" xml:space="preserve">
<path fill="#ea580c" opacity="1.000000" stroke="none" 
	d="
M209.379486,128.349686 
	C248.671524,99.592812 290.964752,77.401634 336.705109,61.668530 
	C369.446167,50.406719 403.012939,42.920212 437.344818,39.033726 
	C469.684998,35.372711 502.051178,35.196476 534.546082,38.410934 
	C578.272827,42.736465 620.540039,52.709812 661.427124,68.553406 
	C709.688660,87.254578 753.604736,113.436569 793.304443,146.632980 
	C833.808289,180.501785 867.762573,220.074905 894.942383,265.309021 
	C926.161438,317.265472 946.848206,373.155365 956.562134,433.095032 
	C960.941956,460.120819 963.367493,487.284546 962.973145,514.613953 
	C961.766296,598.254150 940.468628,676.418823 898.437561,748.883850 
	C874.591003,789.997314 845.337402,826.819458 810.379639,858.902466 
	C752.101746,912.387878 684.580322,949.289612 607.938477,969.178528 
	C577.085205,977.185059 545.727844,981.815125 513.831177,983.519287 
	C451.107513,986.870483 390.261139,977.776306 331.216461,956.853149 
	C274.046021,936.594177 222.617767,906.335938 177.145538,866.068359 
	C109.312469,805.999390 62.472252,732.490784 36.314373,645.823547 
	C27.153063,615.469910 21.292885,584.453003 18.557812,552.806396 
	C10.484439,459.392090 28.042601,371.098816 71.640976,288.174103 
	C105.131775,224.474075 151.187393,171.358795 209.379486,128.349686 
M26.286695,547.285645 
	C27.777269,565.366089 30.189621,583.328064 33.777187,601.106750 
	C42.490044,644.284363 56.921707,685.469849 77.202286,724.592224 
	C108.745674,785.441284 151.508270,836.990906 205.776779,878.835815 
	C259.726715,920.435059 319.935883,948.966492 386.420807,964.149658 
	C429.561279,974.001648 473.178772,977.620850 517.358765,974.903992 
	C547.354919,973.059387 576.877319,968.493103 605.970337,960.934021 
	C681.673035,941.264526 748.199829,904.736267 805.563721,851.725281 
	C841.801453,818.237488 871.800354,779.734741 895.793213,736.517517 
	C933.226074,669.091309 952.431885,596.754761 954.557190,519.844116 
	C955.451965,487.465942 952.494568,455.282379 946.409912,423.474365 
	C933.970520,358.446716 909.047058,298.530487 871.108704,244.246933 
	C828.779846,183.681351 775.126587,135.591980 710.080383,100.388176 
	C651.058228,68.444603 587.887207,50.359905 521.066284,45.665142 
	C493.500092,43.728367 465.776154,44.224903 438.230011,47.452431 
	C397.689789,52.202438 358.355377,61.788441 320.306335,76.711632 
	C250.922958,103.924477 191.515793,145.506241 142.086044,201.104645 
	C96.131721,252.793869 63.391724,312.022278 43.905022,378.456787 
	C32.752689,416.477570 26.232836,455.264099 25.199030,494.920715 
	C24.751682,512.080872 24.915737,529.228577 26.286695,547.285645 
z"/>
<path fill="#ea580c" opacity="1.000000" stroke="none" 
	d="
M416.194824,456.331787 
	C421.465363,431.973450 425.129639,407.838104 424.932526,383.243774 
	C424.923187,382.079315 424.985474,380.910522 425.083130,379.749542 
	C425.656799,372.929474 425.960632,372.657257 432.953522,372.636841 
	C440.950531,372.613495 448.954407,372.790375 456.941620,372.501556 
	C460.977753,372.355591 462.176544,373.936188 462.222473,377.719543 
	C462.417053,393.751129 460.558380,409.633667 458.735229,425.498352 
	C455.225922,456.035553 446.921661,485.531677 438.578979,514.996155 
	C437.162628,519.998352 437.259460,524.647339 438.956421,529.622070 
	C445.241699,548.047180 452.183685,566.273743 456.842407,585.216492 
	C459.948822,597.847351 461.650574,610.689453 462.250946,623.699036 
	C462.465698,628.352905 460.488251,629.974854 456.136078,629.915527 
	C447.973907,629.804199 439.807800,629.763489 431.646454,629.891663 
	C427.313171,629.959656 425.029114,628.165222 425.062164,623.786743 
	C425.272552,595.915955 413.584473,571.013672 405.516510,545.205505 
	C404.629761,542.368958 402.818481,541.429688 399.933350,541.321411 
	C388.307800,540.885315 387.985687,540.704956 384.278503,551.799438 
	C377.853821,571.026794 370.018951,589.884277 367.767242,610.293579 
	C367.220184,615.252258 366.634094,620.219421 366.423218,625.197876 
	C366.278198,628.621765 364.756958,629.992981 361.499817,629.983032 
	C352.503235,629.955505 343.506042,629.922424 334.510010,629.997925 
	C329.286591,630.041748 329.828094,626.530701 329.955414,623.098694 
	C330.745850,601.792664 335.156891,581.230835 342.311981,561.180908 
	C346.059540,550.679565 349.174011,539.949219 353.043762,529.496033 
	C354.960358,524.318970 354.693634,519.617065 353.217804,514.453491 
	C345.031006,485.810211 337.323944,457.046875 333.273651,427.447937 
	C331.035278,411.090424 330.699188,394.611542 329.880188,378.158752 
	C329.645172,373.437744 331.692261,372.024323 336.106110,372.186279 
	C344.257324,372.485352 352.431000,372.732330 360.575287,372.441284 
	C365.147949,372.277893 366.253052,374.086884 366.402893,378.223816 
	C367.325348,403.691315 369.578247,429.021606 375.323486,453.921906 
	C378.876160,469.319550 382.959961,484.581177 387.208374,499.802704 
	C388.153015,503.187256 390.090881,504.437378 393.232544,504.536865 
	C395.227570,504.600037 397.254578,504.332825 399.217010,504.592834 
	C402.392792,505.013641 403.817841,503.446259 404.543884,500.670227 
	C408.375519,486.020508 412.228638,471.376434 416.194824,456.331787 
z"/>
<path fill="#ea580c" opacity="1.000000" stroke="none" 
	d="
M282.000000,409.120209 
	C269.001465,409.121643 256.500732,409.256470 244.005554,409.052490 
	C239.439270,408.977966 237.815460,410.713745 237.835648,415.197510 
	C237.884354,426.018494 237.666611,436.842621 237.409454,447.661987 
	C237.322815,451.306946 238.574951,454.085480 241.387177,456.347137 
	C248.268082,461.880890 255.132156,467.437256 261.916840,473.088013 
	C264.233978,475.017853 266.727478,475.770050 269.714020,475.753296 
	C282.545349,475.681274 295.378723,475.855713 308.208527,475.701233 
	C312.732178,475.646759 314.429657,477.325958 314.303711,481.890686 
	C314.064819,490.549011 314.197418,499.220612 314.323395,507.884521 
	C314.371246,511.174927 313.446594,512.678589 309.750946,512.607422 
	C296.591400,512.353760 283.420807,512.171448 270.264008,512.437378 
	C259.907349,512.646667 250.452179,510.501190 242.081177,504.225983 
	C241.182739,503.552490 240.301804,502.658142 238.627548,503.128021 
	C237.567001,505.279053 237.926529,507.802002 237.917007,510.217102 
	C237.865082,523.381653 237.867935,536.546692 237.913147,549.711365 
	C238.001099,575.323120 255.295074,592.599976 280.934082,592.710327 
	C290.432800,592.751221 299.933136,592.832153 309.430023,592.700500 
	C313.167114,592.648682 315.067139,593.971924 315.035095,597.859436 
	C314.962250,606.691101 314.987488,615.523560 314.960266,624.355652 
	C314.951965,627.054199 314.451904,629.610168 311.064331,629.611145 
	C292.628265,629.616394 274.018585,631.499939 255.970032,626.185364 
	C225.228821,617.133301 201.228943,586.579590 201.522537,552.759949 
	C202.021576,495.271210 201.631775,437.774750 201.625992,380.281555 
	C201.625229,372.619202 201.653625,372.633209 209.361481,372.628784 
	C242.690018,372.609558 276.018677,372.615631 309.346924,372.502808 
	C312.616821,372.491730 314.335052,373.213806 314.282867,376.879303 
	C314.152405,386.042786 314.178223,395.210663 314.302795,404.374573 
	C314.354950,408.212341 312.408173,409.214447 308.995728,409.174225 
	C300.164856,409.070038 291.332031,409.126892 282.000000,409.120209 
z"/>
<path fill="#ea580c" opacity="1.000000" stroke="none" 
	d="
M186.115021,372.462494 
	C190.312622,371.759308 191.586060,373.684906 191.701141,377.159698 
	C192.010101,386.488007 191.890549,395.806305 191.542862,405.131470 
	C191.410416,408.683929 189.274780,409.102386 186.525024,409.100403 
	C175.859192,409.092712 165.193329,409.098602 154.527542,409.126770 
	C146.748215,409.147308 146.398315,409.482117 146.397812,417.340393 
	C146.393860,478.835724 146.406509,540.331055 146.410690,601.826355 
	C146.411194,609.325745 146.253204,616.828613 146.439331,624.323181 
	C146.534866,628.170776 144.983124,629.870483 141.227402,629.855347 
	C132.395767,629.819702 123.563965,629.808777 114.732262,629.818665 
	C111.207184,629.822632 109.671608,628.212708 109.715172,624.604492 
	C109.825813,615.440063 109.715508,606.273132 109.714233,597.107178 
	C109.705925,537.278381 109.705933,477.449554 109.695244,417.620758 
	C109.693733,409.149170 109.673645,409.143341 101.039009,409.132935 
	C90.039886,409.119720 79.037834,408.967560 68.042999,409.181213 
	C63.439438,409.270630 61.770988,407.441467 61.872463,402.992188 
	C62.051018,395.163330 61.902824,387.327545 61.962360,379.495209 
	C62.011959,372.970703 62.648041,372.498505 69.211609,372.503723 
	C108.039444,372.534729 146.867325,372.517822 186.115021,372.462494 
z"/>
<path fill="#ea580c" opacity="1.000000" stroke="none" 
	d="
M710.789062,594.000000 
	C710.787537,582.751221 710.787537,572.002441 710.787537,561.423096 
	C707.871582,560.728333 706.450684,562.089722 704.876587,562.899902 
	C693.844788,568.578247 682.374329,572.940735 669.925720,574.135559 
	C665.210632,574.588196 663.299622,576.760620 663.349487,581.560913 
	C663.510193,597.034790 663.243164,612.513428 663.448364,627.986206 
	C663.511108,632.722412 661.962036,634.507507 657.152954,634.395081 
	C646.663940,634.149963 636.164978,634.354553 625.670166,634.322510 
	C619.003052,634.302185 618.701904,633.994324 618.698669,627.188293 
	C618.668518,564.219116 618.651978,501.249908 618.636414,438.280701 
	C618.631531,418.623657 618.628296,398.966553 618.652649,379.309540 
	C618.660400,373.057800 618.992554,372.723816 625.092346,372.720428 
	C640.251587,372.712006 655.411255,372.676147 670.570068,372.767487 
	C709.124878,372.999786 743.486694,400.179443 753.252380,437.568848 
	C755.705200,446.959778 755.710449,456.415619 755.647217,465.829987 
	C755.352722,509.635284 755.237244,553.437256 755.758057,597.241211 
	C755.882568,607.713440 755.694824,618.189026 755.757874,628.662415 
	C755.783325,632.890320 753.995911,634.457642 749.698120,634.363159 
	C739.208557,634.132690 728.710022,634.352234 718.215515,634.298950 
	C711.095764,634.262756 710.808167,633.930969 710.795715,626.984131 
	C710.776367,616.156067 710.790527,605.328064 710.789062,594.000000 
M745.288818,622.093384 
	C745.356018,618.610168 745.479248,615.126953 745.482056,611.643677 
	C745.521240,562.836487 745.581177,514.029236 745.525208,465.222168 
	C745.517944,458.903748 745.350403,452.521515 744.473816,446.278809 
	C739.755920,412.679352 706.310059,383.519348 672.460144,383.277527 
	C660.800232,383.194214 649.139465,383.209534 637.479126,383.208252 
	C629.194092,383.207336 629.183411,383.228607 629.183716,391.376801 
	C629.186157,459.674377 629.191956,527.971985 629.200012,596.269531 
	C629.200867,603.765442 629.294739,611.262268 629.201538,618.756836 
	C629.157471,622.300903 630.507019,623.983032 634.207397,623.852112 
	C638.365784,623.704956 642.555481,623.608154 646.693726,623.949219 
	C651.411560,624.338013 653.180481,622.733521 653.111450,617.817993 
	C652.896301,602.496826 653.024719,587.169250 653.168945,571.845520 
	C653.226379,565.742554 654.056641,565.246216 660.178040,564.754517 
	C671.161438,563.872253 681.853516,561.771362 692.106140,557.450806 
	C700.471985,553.925354 707.953796,549.029968 715.386292,543.957153 
	C719.464417,541.173767 721.045227,541.983521 721.257690,546.812073 
	C721.389343,549.805115 721.310974,552.807800 721.313232,555.806152 
	C721.329163,576.461975 721.316956,597.117798 721.391357,617.773438 
	C721.399170,619.936646 720.523010,623.378906 723.742065,623.482727 
	C730.786255,623.709900 737.934082,625.060120 745.288818,622.093384 
z"/>
<path fill="#ea580c" opacity="1.000000" stroke="none" 
	d="
M872.776611,622.869019 
	C860.597595,630.522034 847.556213,634.101624 833.622559,634.234375 
	C816.134583,634.401001 798.642761,634.170593 781.154846,634.338928 
	C776.591248,634.382874 774.613647,633.126892 774.620422,628.151550 
	C774.733948,544.867676 774.722168,461.583527 774.642578,378.299561 
	C774.638428,373.958344 776.164429,372.553375 780.502319,372.569336 
	C819.978455,372.714661 859.455261,372.666992 898.931885,372.701385 
	C905.857117,372.707397 906.272644,373.126282 906.280884,380.099152 
	C906.309448,404.251495 906.347534,428.404022 906.283386,452.556244 
	C906.236267,470.319489 900.882385,486.302765 889.584961,500.108582 
	C887.022827,503.239624 886.999329,505.611969 889.635925,508.818817 
	C920.328674,546.150024 913.117493,595.364014 872.776611,622.869019 
M898.037415,559.479248 
	C898.027405,540.092957 890.749817,523.837769 876.808533,510.510223 
	C871.045593,505.000854 870.961853,504.921539 876.679382,499.179077 
	C889.289490,486.513794 895.666687,471.214630 895.760254,453.385529 
	C895.873901,431.719940 895.695740,410.052551 895.865906,388.387665 
	C895.902222,383.765411 894.140503,382.238983 889.692383,382.253876 
	C856.860046,382.363647 824.027039,382.385681 791.194763,382.283417 
	C786.744812,382.269562 784.882507,383.692474 784.982849,388.334351 
	C785.224121,399.495972 785.122620,410.665466 785.122192,421.831787 
	C785.119690,486.830505 785.104431,551.829224 785.099854,616.827942 
	C785.099426,623.737976 785.145813,623.774048 792.019775,623.780945 
	C804.686218,623.793701 817.352661,623.823059 830.018982,623.788574 
	C836.022888,623.772278 842.045288,623.523438 847.897034,622.133423 
	C876.476562,615.345032 896.737610,590.342224 898.037415,559.479248 
z"/>
<path fill="#ea580c" opacity="1.000000" stroke="none" 
	d="
M521.643799,493.999939 
	C521.634949,455.522705 521.625000,417.545532 521.619934,379.568329 
	C521.618958,372.668152 521.628113,372.663635 528.555359,372.662170 
	C539.382141,372.659851 550.211792,372.807281 561.034119,372.588165 
	C564.798889,372.511932 566.200195,373.993744 566.183044,377.492920 
	C566.160156,382.156433 566.211487,386.820221 566.212952,391.483887 
	C566.228516,442.453278 566.220093,493.422729 566.262268,544.392090 
	C566.283142,569.668579 581.592590,586.514954 606.737610,588.791016 
	C611.185425,589.193665 613.379761,590.771423 613.306396,595.513062 
	C613.138672,606.336975 613.178955,617.166443 613.304138,627.991638 
	C613.358643,632.706970 611.345459,634.483093 606.647095,634.344116 
	C556.516235,632.860168 521.952576,592.474609 521.701172,550.466370 
	C521.589478,531.811462 521.657654,513.155457 521.643799,493.999939 
M555.775085,444.500000 
	C555.774353,426.013184 555.782104,407.526367 555.768311,389.039551 
	C555.763489,382.623474 555.493958,382.373779 548.939941,382.349548 
	C545.442505,382.336609 541.939575,382.489899 538.448853,382.340729 
	C533.892151,382.146027 531.611877,383.836029 531.893738,388.726868 
	C532.151855,393.208160 531.919617,397.717041 531.924133,402.213745 
	C531.974304,451.844086 531.523743,501.481812 532.254395,551.102173 
	C532.762939,585.637451 559.048584,615.688965 592.746033,622.453186 
	C601.835999,624.277771 602.731262,623.537170 602.734619,614.188354 
	C602.734863,613.522156 602.733093,612.855957 602.732178,612.189758 
	C602.716614,600.620667 602.716675,600.620667 592.048584,596.935913 
	C570.212646,589.393738 555.983582,570.041382 555.850098,546.927002 
	C555.655029,513.119019 555.783508,479.309113 555.775085,444.500000 
z"/>
<path fill="#ea580c" opacity="1.000000" stroke="none" 
	d="
M493.559631,593.118896 
	C501.765198,592.686401 507.926605,595.687805 511.892029,602.440613 
	C515.710876,608.943970 515.242310,615.542664 510.944031,621.663391 
	C506.675201,627.742188 500.742493,630.634460 493.263824,629.328186 
	C486.288605,628.109741 481.301086,623.873535 479.290436,617.263428 
	C477.222168,610.463867 478.022247,603.743591 483.651550,598.432861 
	C486.371521,595.866882 489.556244,594.162231 493.559631,593.118896 
z"/>
<path fill="#ea580c" opacity="1.000000" stroke="none" 
	d="
M721.332520,471.000580 
	C721.334900,481.164307 721.131592,490.834290 721.418213,500.489685 
	C721.576294,505.814362 719.851562,509.496307 715.503357,512.771545 
	C705.146118,520.573181 695.607971,529.464417 683.476135,534.730835 
	C675.243530,538.304565 666.661072,539.876282 657.809509,540.541382 
	C654.783875,540.768738 653.498047,539.251038 653.225037,536.550537 
	C653.041138,534.731689 652.991943,532.892639 652.992004,531.062622 
	C652.992676,492.907288 652.995544,454.751923 653.031921,416.596588 
	C653.040771,407.249420 653.468567,406.960480 663.012451,406.889496 
	C681.220520,406.754120 697.144287,412.021912 709.250305,426.312927 
	C716.980774,435.438599 720.442871,446.250763 721.194885,458.007416 
	C721.460327,462.157776 721.298279,466.335510 721.332520,471.000580 
M696.395325,514.877625 
	C699.654602,512.294556 702.853455,509.630157 706.190125,507.151245 
	C709.521484,504.676239 711.068054,501.636139 710.893616,497.358490 
	C710.615845,490.548126 710.858398,483.718018 710.791687,476.897156 
	C710.715210,469.082886 711.352722,461.153046 710.250610,453.478699 
	C707.463196,434.069885 692.762024,420.545898 672.998535,418.152466 
	C663.346863,416.983612 663.310425,416.983978 663.408875,426.827972 
	C663.533630,439.300964 663.876709,451.773621 663.853088,464.245911 
	C663.816528,483.532379 663.524170,502.818268 663.393433,522.104797 
	C663.348145,528.778564 665.245544,530.006287 671.677368,527.992737 
	C680.510498,525.227417 688.564331,521.030701 696.395325,514.877625 
z"/>
<path fill="#ea580c" opacity="1.000000" stroke="none" 
	d="
M858.208740,483.249695 
	C853.107727,487.468445 847.646729,490.301636 841.624146,491.870636 
	C838.430542,492.702637 837.288208,494.504364 837.347595,497.593994 
	C837.440369,502.423828 837.358704,507.256836 837.432739,512.087280 
	C837.490051,515.831604 839.015564,517.956177 843.066895,519.020203 
	C859.704590,523.389893 872.192566,538.760864 873.381042,554.261658 
	C875.134338,577.129700 861.147217,592.080444 846.593933,597.002441 
	C835.401733,600.787659 823.871826,599.541382 812.418396,599.100159 
	C809.707886,598.995728 809.012817,596.787292 808.974060,594.418884 
	C808.911377,590.587524 808.838867,586.755798 808.838562,582.924194 
	C808.834351,527.277771 808.834412,471.631317 808.853333,415.984894 
	C808.856140,407.562012 809.576050,406.872040 817.957642,406.857117 
	C833.618530,406.829254 849.280640,406.922638 864.939636,406.741760 
	C869.617737,406.687744 871.449524,408.275330 871.358765,413.130249 
	C871.112732,426.287445 871.281006,439.452454 871.286194,452.614349 
	C871.290894,464.547791 867.113770,474.720734 858.208740,483.249695 
M860.878296,453.330688 
	C860.901123,443.501740 860.708618,433.665619 861.034668,423.846741 
	C861.205811,418.692078 859.147644,417.172516 854.278198,417.316376 
	C845.289795,417.581940 836.287842,417.390656 827.291565,417.388062 
	C819.363281,417.385803 819.337158,417.416443 819.339966,425.479828 
	C819.356873,473.459869 819.370911,521.439880 819.386719,569.419922 
	C819.388306,574.251038 819.395447,579.082153 819.399780,583.913269 
	C819.402832,587.360107 820.922546,589.179749 824.574402,589.017273 
	C828.233215,588.854370 831.910278,589.026184 835.561523,588.783569 
	C856.059082,587.421570 869.237732,565.295776 860.687134,546.581482 
	C855.512573,535.256165 846.506409,529.349731 834.207275,528.143799 
	C827.405945,527.476929 827.003906,526.956543 826.987793,520.188049 
	C826.963684,510.025818 827.025940,499.863007 826.935364,489.701508 
	C826.895325,485.213196 828.133850,482.888458 833.383728,482.466583 
	C849.649536,481.159363 859.844604,470.351257 860.878296,453.330688 
z"/>
</svg>